<?xml version="1.0" standalone="no"?>
<!DOCTYPE svg PUBLIC "-//W3C//DTD SVG 20010904//EN"
 "http://www.w3.org/TR/2001/REC-SVG-20010904/DTD/svg10.dtd">
<svg version="1.0" xmlns="http://www.w3.org/2000/svg"
 width="560.000000pt" height="487.000000pt" viewBox="0 0 560.000000 487.000000"
 preserveAspectRatio="xMidYMid meet">

<g transform="translate(0.000000,487.000000) scale(0.100000,-0.100000)"
fill="#000000" stroke="none">
<path d="M0 4065 l0 -805 260 0 259 0 42 73 c22 39 65 113 94 162 28 50 80
140 115 200 35 61 94 163 132 227 l69 118 -82 147 c-45 82 -127 227 -182 323
-55 96 -118 208 -140 248 l-40 72 -251 2 c-206 2 -229 3 -126 8 99 5 111 7 60
10 l-65 3 65 7 c52 5 38 7 -72 8 l-138 2 0 -805z"/>
<path d="M540 4857 c0 -8 41 -83 91 -168 123 -209 141 -238 258 -436 l102
-173 165 0 c90 0 164 -3 164 -8 0 -4 -7 -18 -16 -31 -16 -22 -21 -22 -148 -21
-72 1 -138 2 -147 1 -15 -1 -112 -156 -204 -326 -15 -27 -34 -57 -41 -66 -8
-8 -14 -18 -14 -22 0 -4 -20 -39 -44 -79 -24 -40 -63 -107 -86 -148 -24 -41
-51 -89 -61 -105 l-18 -31 76 -133 c47 -82 72 -136 66 -142 -6 -6 -35 37 -79
112 -38 67 -75 128 -82 136 -11 10 -68 13 -268 13 l-254 0 0 -785 0 -785 262
2 263 3 74 133 c44 77 79 128 84 123 5 -5 -23 -64 -67 -142 l-76 -133 92 -160
c92 -161 211 -366 306 -527 28 -48 57 -89 64 -91 7 -3 72 -4 145 -2 126 4 133
3 153 -18 11 -12 20 -25 20 -30 0 -4 -74 -8 -165 -8 l-164 0 -99 -168 c-55
-92 -130 -219 -167 -282 -37 -63 -94 -160 -126 -215 -32 -55 -59 -107 -59
-115 0 -12 -14 -14 -82 -12 -53 2 -77 7 -67 13 10 6 7 9 -13 9 -15 0 -30 5
-33 10 -4 6 27 10 87 10 78 0 95 3 104 18 15 23 64 112 109 197 21 39 44 77
51 86 8 8 14 18 14 21 0 4 58 108 129 233 104 182 128 232 121 249 -4 11 -49
93 -100 181 -51 88 -107 185 -124 216 -17 31 -71 126 -121 212 l-90 156 -262
1 -263 0 0 -815 0 -815 1168 3 1167 2 3 22 c2 12 -8 39 -21 60 -48 76 -127
221 -127 232 0 8 8 10 22 5 13 -3 23 -7 24 -8 0 0 32 -56 70 -122 l68 -122
201 -7 c110 -3 315 -5 455 -3 l255 3 71 124 c44 78 79 127 92 132 12 5 22 4
22 -1 0 -5 -36 -70 -81 -145 -56 -95 -78 -142 -74 -155 6 -20 23 -20 1146 -20
l1139 0 0 1615 0 1615 -222 -6 c-123 -3 -228 -7 -234 -9 -7 -2 -44 -58 -84
-125 -97 -164 -114 -146 -20 20 38 69 70 128 70 133 0 10 -56 114 -109 202
-20 33 -104 178 -186 322 l-150 263 -151 0 c-129 0 -153 2 -158 16 -3 9 -6 18
-6 20 0 2 69 4 154 4 128 0 156 3 167 16 7 9 58 95 114 192 56 98 140 242 187
322 96 164 148 256 148 264 0 4 -407 6 -905 6 -553 0 -905 -4 -905 -9 0 -5 36
-70 80 -145 44 -74 80 -140 80 -145 0 -6 -8 -11 -18 -11 -13 0 -40 39 -92 130
-41 72 -78 131 -82 131 -4 1 -17 1 -28 1 -11 0 -213 0 -448 -1 l-429 -1 -14
-27 c-45 -88 -123 -219 -132 -225 -19 -12 -37 -9 -37 6 0 11 47 97 90 166 10
16 63 110 68 123 2 4 -404 7 -902 7 -750 0 -906 -2 -906 -13z m3516 -2892
c164 -181 301 -331 306 -333 4 -2 8 136 8 307 l0 311 45 0 45 0 0 -431 c0
-237 -4 -429 -8 -427 -5 2 -48 48 -98 103 -49 55 -99 111 -112 125 -13 14
-107 119 -210 233 l-187 209 -3 -311 -2 -311 -50 0 -50 0 0 431 c0 270 4 429
10 427 5 -1 143 -151 306 -333z m-2336 240 l0 -45 -355 0 -355 0 0 45 0 45
355 0 355 0 0 -45z m758 19 c124 -62 174 -211 111 -335 -18 -36 -80 -98 -119
-119 -20 -11 -20 -13 41 -128 34 -64 71 -132 81 -151 26 -47 19 -57 -36 -53
l-46 4 -81 154 -81 154 -99 0 -99 0 0 -154 0 -154 -41 -4 c-22 -2 -42 -2 -45
1 -2 2 -4 93 -4 202 l0 198 179 3 c164 3 182 5 208 24 101 75 98 216 -7 271
-41 22 -54 23 -247 23 l-203 0 0 -359 0 -359 -26 -5 c-14 -2 -35 -2 -45 0 -18
5 -19 21 -19 409 l0 404 263 0 c263 0 263 0 315 -26z m810 12 c108 -29 210
-116 260 -224 24 -51 27 -69 27 -167 0 -105 -2 -113 -34 -177 -41 -82 -119
-159 -198 -196 -52 -24 -69 -27 -168 -27 -99 0 -116 3 -168 27 -260 122 -322
467 -118 661 61 58 117 92 178 106 59 14 162 12 221 -3z m-1958 -511 l0 -285
-45 0 -45 0 0 285 0 285 45 0 45 0 0 -285z m160 0 l0 -285 -45 0 -45 0 0 285
0 285 45 0 45 0 0 -285z m3554 105 c60 -108 64 -120 41 -120 -8 0 -15 4 -15 9
0 4 -22 47 -50 95 -27 48 -47 93 -44 101 4 8 7 15 9 15 1 0 28 -45 59 -100z
m-1049 -214 l0 -171 -45 0 -45 0 -3 200 c-1 110 0 206 3 214 5 12 16 5 48 -29
l42 -44 0 -170z m-771 -696 c53 -118 96 -221 96 -228 0 -7 -14 -12 -34 -12
-32 0 -36 4 -60 55 l-25 55 -83 0 -84 0 -27 -55 c-25 -51 -29 -55 -62 -55 -19
0 -35 3 -35 7 0 17 209 458 214 451 2 -1 47 -100 100 -218z m-519 62 c26 -73
50 -130 54 -127 3 3 28 61 56 128 l51 122 37 3 c20 2 37 -1 37 -7 0 -10 -161
-397 -178 -428 -12 -21 -9 -28 -73 152 -22 60 -41 111 -43 112 -2 2 -27 -60
-56 -137 -29 -77 -55 -140 -59 -140 -5 0 -136 322 -177 433 -5 14 0 17 34 17
l39 0 33 -87 c18 -49 42 -108 53 -133 l19 -45 18 45 c9 25 34 89 55 143 21 54
41 95 45 90 4 -4 29 -68 55 -141z m-445 121 c26 -18 49 -43 50 -54 0 -4 -12
-14 -26 -24 -25 -16 -27 -16 -41 4 -24 35 -103 21 -103 -18 0 -23 22 -41 93
-75 65 -31 87 -63 87 -126 0 -79 -52 -130 -134 -130 -74 0 -119 33 -132 98 -5
25 -2 30 18 35 36 10 48 8 48 -7 0 -8 8 -24 18 -36 36 -44 112 -17 112 40 0
33 -19 50 -92 83 -31 14 -64 37 -73 51 -36 55 -14 133 46 163 34 18 100 16
129 -4z m1290 -9 c59 -35 78 -119 41 -180 -20 -32 -51 -48 -113 -59 l-37 -6
-3 -82 -3 -82 -32 -3 -33 -3 0 215 0 216 76 0 c52 0 85 -5 104 -16z m1048
-259 c3 -19 -2 -20 -123 -17 -69 2 -125 5 -125 7 0 2 3 11 6 19 5 14 23 16
123 14 107 -3 116 -5 119 -23z"/>
<path d="M3090 2151 c-226 -75 -305 -342 -151 -513 152 -169 412 -136 519 67
23 43 27 62 27 140 0 75 -4 97 -23 133 -60 112 -150 172 -270 178 -42 2 -88 0
-102 -5z m128 -263 c7 -7 12 -26 12 -43 0 -39 -16 -55 -56 -55 -36 0 -56 19
-56 55 0 14 5 32 12 40 15 18 71 20 88 3z"/>
<path d="M3087 910 l-26 -60 55 0 c30 0 54 3 54 7 0 15 -44 113 -50 113 -4 0
-18 -27 -33 -60z"/>
<path d="M3440 986 c0 -60 2 -66 21 -66 11 0 30 5 42 11 62 33 45 98 -30 114
l-33 7 0 -66z"/>
<path d="M5172 4820 c-44 -5 -44 -6 -102 -106 -32 -55 -78 -137 -102 -181 -23
-45 -70 -128 -104 -185 -33 -56 -87 -149 -118 -205 l-58 -102 46 -76 c25 -42
46 -77 46 -79 0 -2 28 -53 63 -113 35 -60 67 -116 71 -124 4 -8 12 -23 19 -34
7 -11 25 -42 41 -70 16 -27 61 -103 99 -167 l68 -118 230 0 229 0 0 785 0 786
-192 -3 c-106 -1 -213 -5 -236 -8z"/>
<path d="M2375 10 c-4 -7 150 -10 454 -10 301 0 461 3 461 10 0 7 -158 10
-454 10 -293 0 -457 -4 -461 -10z"/>
</g>
</svg>
